<svg width="35" height="35" viewBox="0 0 35 35" fill="none" xmlns="http://www.w3.org/2000/svg">
<g clip-path="url(#clip0_9_16)">
<path d="M17.5 0C14.0388 0 10.6554 1.02636 7.77753 2.94928C4.89967 4.87221 2.65665 7.60533 1.33212 10.803C0.00758251 14.0007 -0.338976 17.5194 0.336265 20.9141C1.01151 24.3087 2.67822 27.4269 5.12564 29.8744C7.57306 32.3218 10.6913 33.9885 14.0859 34.6637C17.4806 35.339 20.9993 34.9924 24.197 33.6679C27.3947 32.3434 30.1278 30.1003 32.0507 27.2225C33.9736 24.3446 35 20.9612 35 17.5C34.995 12.8603 33.1496 8.41197 29.8688 5.13117C26.588 1.85037 22.1398 0.00501824 17.5 0V0ZM17.5 29.1667C17.2116 29.1667 16.9296 29.0811 16.6898 28.9209C16.45 28.7607 16.2631 28.5329 16.1527 28.2664C16.0423 27.9999 16.0134 27.7067 16.0697 27.4238C16.126 27.1409 16.2649 26.8811 16.4688 26.6771C16.6728 26.4732 16.9326 26.3343 17.2155 26.278C17.4984 26.2218 17.7916 26.2506 18.0581 26.361C18.3246 26.4714 18.5523 26.6583 18.7126 26.8981C18.8728 27.1379 18.9583 27.4199 18.9583 27.7083C18.9583 28.0951 18.8047 28.466 18.5312 28.7395C18.2577 29.013 17.8868 29.1667 17.5 29.1667ZM20.3146 18.2379C19.8842 18.507 19.5323 18.8847 19.2942 19.3329C19.0561 19.7812 18.9403 20.2842 18.9583 20.7915V21.875C18.9583 22.2618 18.8047 22.6327 18.5312 22.9062C18.2577 23.1797 17.8868 23.3333 17.5 23.3333C17.1132 23.3333 16.7423 23.1797 16.4688 22.9062C16.1953 22.6327 16.0417 22.2618 16.0417 21.875V20.7915C16.0201 19.7625 16.2744 18.7465 16.778 17.849C17.2817 16.9514 18.0164 16.205 18.9058 15.6873C19.4447 15.3905 19.8759 14.931 20.1378 14.3744C20.3997 13.8178 20.4789 13.1927 20.3642 12.5883C20.2505 12.0126 19.9679 11.4838 19.5522 11.0695C19.1366 10.6551 18.6069 10.3741 18.0308 10.2623C17.6104 10.1845 17.1781 10.2 16.7643 10.3079C16.3506 10.4157 15.9657 10.6132 15.6367 10.8863C15.3078 11.1595 15.0429 11.5016 14.8609 11.8884C14.6789 12.2753 14.5841 12.6975 14.5833 13.125C14.5833 13.5118 14.4297 13.8827 14.1562 14.1562C13.8827 14.4297 13.5118 14.5833 13.125 14.5833C12.7382 14.5833 12.3673 14.4297 12.0938 14.1562C11.8203 13.8827 11.6667 13.5118 11.6667 13.125C11.667 12.0962 11.9395 11.0857 12.4564 10.1962C12.9734 9.30661 13.7164 8.5696 14.6101 8.0599C15.5038 7.55019 16.5164 7.28593 17.5452 7.29391C18.5741 7.30189 19.5825 7.58183 20.4682 8.10533C21.3539 8.62884 22.0854 9.37728 22.5884 10.2747C23.0915 11.1722 23.3483 12.1868 23.3327 13.2155C23.3171 14.2442 23.0297 15.2505 22.4996 16.1323C21.9696 17.0141 21.2158 17.74 20.3146 18.2365V18.2379Z" fill="#F5C20E"/>
</g>
<defs>
<clipPath id="clip0_9_16">
<rect width="35" height="35" fill="white"/>
</clipPath>
</defs>
</svg>
