<svg width="20" height="20" viewBox="0 0 20 20" fill="none" xmlns="http://www.w3.org/2000/svg">
<g clip-path="url(#clip0_9_9)">
<path d="M10 11.6667C9.33696 11.6667 8.70107 11.93 8.23223 12.3989C7.76339 12.8677 7.5 13.5036 7.5 14.1667V20.0217H12.5V14.1667C12.5 13.5036 12.2366 12.8677 11.7678 12.3989C11.2989 11.93 10.663 11.6667 10 11.6667Z" fill="white"/>
<path d="M11.115 0.694162C10.809 0.418692 10.4118 0.266266 10 0.266266C9.58824 0.266266 9.19105 0.418692 8.885 0.694162L0 8.69083V17.3575C0 18.0647 0.280952 18.743 0.781049 19.2431C1.28115 19.7432 1.95942 20.0242 2.66667 20.0242H5.83333V14.1667C5.83333 13.0616 6.27232 12.0018 7.05372 11.2204C7.83512 10.439 8.89493 10 10 10C11.1051 10 12.1649 10.439 12.9463 11.2204C13.7277 12.0018 14.1667 13.0616 14.1667 14.1667V20.0217H17.3333C18.0406 20.0217 18.7189 19.7407 19.219 19.2406C19.719 18.7405 20 18.0622 20 17.355V8.68833L11.115 0.694162Z" fill="white"/>
</g>
<defs>
<clipPath id="clip0_9_9">
<rect width="20" height="20" fill="white"/>
</clipPath>
</defs>
</svg>
