<svg width="35" height="35" viewBox="0 0 35 35" fill="none" xmlns="http://www.w3.org/2000/svg">
<g clip-path="url(#clip0_9_9)">
<path d="M17.5 20.4167C16.3397 20.4167 15.2269 20.8776 14.4064 21.6981C13.5859 22.5185 13.125 23.6313 13.125 24.7917V35.0379H21.875V24.7917C21.875 23.6313 21.4141 22.5185 20.5936 21.6981C19.7731 20.8776 18.6603 20.4167 17.5 20.4167Z" fill="white"/>
<path d="M19.4513 1.21479C18.9157 0.732719 18.2206 0.465973 17.5 0.465973C16.7794 0.465973 16.0843 0.732719 15.5487 1.21479L0 15.209V30.3756C0 31.6133 0.491665 32.8003 1.36684 33.6755C2.242 34.5506 3.42899 35.0423 4.66667 35.0423H10.2083V24.7917C10.2083 22.8578 10.9766 21.0031 12.344 19.6357C13.7115 18.2682 15.5661 17.5 17.5 17.5C19.4339 17.5 21.2885 18.2682 22.656 19.6357C24.0234 21.0031 24.7917 22.8578 24.7917 24.7917V35.0379H30.3333C31.571 35.0379 32.758 34.5463 33.6332 33.6711C34.5083 32.7959 35 31.6089 35 30.3713V15.2046L19.4513 1.21479Z" fill="white"/>
</g>
<defs>
<clipPath id="clip0_9_9">
<rect width="35" height="35" fill="white"/>
</clipPath>
</defs>
</svg>
